<svg width="430" height="135" viewBox="0 0 430 135" fill="none" xmlns="http://www.w3.org/2000/svg">
<path d="M98.2667 1.86666C80.8 8.26666 61.4667 30.5333 47.3333 60.2667L41.3333 72.9333L31.6 75.8667C21.0667 78.9333 7.59999 81.3333 3.33332 80.9333C0.266658 80.6667 -1.20001 85.0667 1.59999 86.8C5.73332 89.4667 18.1333 92.1333 27.3333 92.2667L37.3333 92.5333V101.2C37.4667 123.867 52.2667 134.4 78.6667 130.8C102.4 127.467 127.067 111.467 140.267 90.8C147.467 79.4667 143.6 75.0667 134.133 83.7333C123.867 93.2 107.067 100 94 100C86.4 100 82.2667 97.7333 79.3333 92C76.1333 85.8667 76.8 82.2667 81.3333 79.4667C87.7333 75.7333 105.867 57.3333 109.733 50.6667C122.533 28.8 124.933 20 120.8 9.99999C117.333 1.86666 107.733 -1.60001 98.2667 1.86666ZM109.067 11.4667C114.933 15.4667 111.867 27.2 101.6 39.7333C97.2 45.0667 81.4667 58 80.5333 56.9333C79.2 55.6 91.4667 21.8667 95.8667 14.9333C99.2 9.59999 104.4 8.26666 109.067 11.4667Z" fill="black"/>
<path d="M267.467 36.6666C262.133 39.4666 260.133 42.5333 260 47.6C260 53.8666 262.4 58.2666 267.333 60.6666C272.8 63.2 275.067 63.2 280 60.6666C284.8 58.2666 286.933 54.4 286.933 48.6666C286.933 42.5333 284.533 38.8 279.333 36.5333C273.6 34.1333 272.267 34.2666 267.467 36.6666Z" fill="black"/>
<path d="M174 70.1333C158.4 78.1333 152 97.0666 158.667 115.067C163.467 128 172.667 134.667 185.733 134.667H190.667V123.333C190.667 112.933 190.4 112 188 112C181.867 112 178.4 97.4666 183.333 92C184.667 90.5333 186.8 89.3333 188.267 89.3333C190.4 89.3333 190.667 88.1333 190.667 78.6666V68H184.4C180.8 68 176.267 68.9333 174 70.1333Z" fill="black"/>
<path d="M238.533 70C236.533 71.0666 233.733 73.8666 232.267 76.2666L229.467 80.5333L230.267 74.9333L231.067 69.3333H218.8H206.667V101.333V133.333H218.667H230.667V118C230.667 96 233.6 90.4 244 92.6666L248 93.6V80.8C248 68.4 247.867 68 245.067 68C243.333 68.1333 240.4 68.9333 238.533 70Z" fill="black"/>
<path d="M401.067 73.3333L396 78.8V74V69.3333H384H372V101.333V133.333H384H396V115.2C396 96.5333 397.067 92 401.2 92C404.933 92 405.333 94.4 405.333 114.8V133.333H417.333H429.333V109.6C429.333 83.4666 428.267 77.3333 422.667 71.7333C419.6 68.6666 417.733 68 412.533 68C406.933 68 405.733 68.5333 401.067 73.3333Z" fill="black"/>
<path d="M261.333 101.333V133.333H273.333H285.333V101.333V69.3333H273.333H261.333V101.333Z" fill="black"/>
<path d="M302.667 82.9333C304.667 90.5333 308.667 104.933 311.333 115.067L316.4 133.467L329.067 133.067L341.733 132.667L350.8 101.333C355.867 84.1333 360 69.8666 360 69.6C360 69.4666 354.667 69.3333 348.133 69.3333H336.267L333.467 84.9333C329.467 106.933 329.867 105.067 329.067 102.667C328.667 101.6 327.333 94 326 86C324.8 77.8666 323.467 70.9333 323.067 70.2666C322.8 69.7333 317.2 69.3333 310.667 69.3333H298.933L302.667 82.9333Z" fill="black"/>
</svg>
